inDegrees=yes
name=ik_lifting_orientations
DataType=double
version=3
OpenSimVersion=4.5-2024-01-10-34fd6af
endheader
time	pelvis_tilt	pelvis_list	pelvis_rotation	pelvis_tx	pelvis_ty	pelvis_tz	hip_flexion_r	hip_adduction_r	hip_rotation_r	knee_angle_r	knee_angle_r_beta	ankle_angle_r	subtalar_angle_r	mtp_angle_r	hip_flexion_l	hip_adduction_l	hip_rotation_l	knee_angle_l	knee_angle_l_beta	ankle_angle_l	subtalar_angle_l	mtp_angle_l	lumbar_extension	lumbar_bending	lumbar_rotation	arm_flex_r	arm_add_r	arm_rot_r	elbow_flex_r	pro_sup_r	wrist_flex_r	wrist_dev_r	arm_flex_l	arm_add_l	arm_rot_l	elbow_flex_l	pro_sup_l	wrist_flex_l	wrist_dev_l
1.23	2.188571481844157	4.631019486702638	-60.79182186499557	0	0.9399999998679526	0	44.70173237721472	-11.1331499437551	0	59.28812654400162	1.034773015531875	-5.480773597677013	0	0	44.70173237721472	-11.1331499437551	0	59.28812654400162	1.034773015531875	-5.480773597677013	0	0	-0.8614882967200687	7.589680815421124	-26.74701573247403	-8.540333771291609	-50.47965451395005	-16.80689790697264	118.4142687386145	3.653031384768965	0	0	0	-9.99324847036652	0	86.40202353468567	3.653031384768965	0	0
1.24	2.286800661634616	4.906565422801356	-60.00218293229855	0	0.9399999998679526	0	44.70313571864468	-11.11925232064438	0	59.2913285453811	1.0348289009986	-5.473556178300801	0	0	44.70313571864468	-11.11925232064438	0	59.2913285453811	1.0348289009986	-5.473556178300801	0	0	-0.3920563773262575	6.823489512422801	-27.60391470725489	-6.700784707407081	-50.64091850994721	-15.52314056707824	121.7321178639483	3.640075645325195	0	0	0	-10.00717825430564	0	86.4147830662609	3.640075645325195	0	0
1.25	2.348718912006598	5.111053021504316	-59.31447524852166	0	0.9399999998679526	0	44.70427422446576	-11.10866092781153	0	59.29400203157526	1.034875562135195	-5.468148320904123	0	0	44.70427422446576	-11.10866092781153	0	59.29400203157526	1.034875562135195	-5.468148320904123	0	0	-0.01166664219398694	6.213625484652906	-28.18721317989014	-5.174928630832585	-50.98420934225966	-14.68078658100409	125.6549529054478	3.629426215160632	0	0	0	-10.01873990026109	0	86.42527124978194	3.629426215160632	0	0
1.26	2.43216974641261	5.354947674515761	-58.66976710296525	0	0.9399999998679526	0	44.70453908270347	-11.10517987262919	0	59.29449710330112	1.034884202766845	-5.466231460696398	0	0	44.70453908270347	-11.10517987262919	0	59.29449710330112	1.034884202766845	-5.466231460696398	0	0	0.3246574138316061	5.554268314596083	-28.76697666033089	-6.565009008099268	-50.87585790456343	-16.04629624515335	131.3833398026389	3.627163278122806	0	0	0	-10.02102461359995	0	86.42749987206085	3.627163278122806	0	0
1.27	2.546841758740056	5.589385390479771	-58.6636815866874	0	0.9399999998679526	0	44.70480655143623	-11.10167162058106	0	59.2949970763479	1.034892928942682	-5.464301363416016	0	0	44.70480655143623	-11.10167162058106	0	59.2949970763479	1.034892928942682	-5.464301363416016	0	0	0.585626521038115	4.860321331935314	-28.65078495236569	-8.031519263594019	-50.48544120775644	-17.4513881381122	136.8554929419308	3.624877560289174	0	0	0	-10.02333258829299	0	86.42975092985424	3.624877560289174	0	0
1.28	2.663769775658855	5.854301072979406	-58.66916286635412	0	0.9399999998679526	0	44.70602587230879	-11.0897633208376	0	59.29777867452864	1.034941476989404	-5.458150274775466	0	0	44.70602587230879	-11.0897633208376	0	59.29777867452864	1.034941476989404	-5.458150274775466	0	0	0.8404573938420896	4.260528529994994	-28.61304364705465	-5.262622843002379	-50.50824864236935	-15.2900311534883	141.5270394743608	3.613598671697514	0	0	0	-10.03547476120306	0	86.44085901104968	3.613598671697514	0	0
1.29	2.786529791492829	6.068802367230419	-58.6441181980848	0	0.9399999998679526	0	44.70757845317392	-11.07495671052428	0	59.30137324438887	1.035004214068658	-5.450543862930818	0	0	44.70757845317392	-11.07495671052428	0	59.30137324438887	1.035004214068658	-5.450543862930818	0	0	1.047803839910792	3.761493622886061	-28.50467299423148	-2.250010889100215	-50.44690190993288	-12.92743429166086	145.9904831375834	3.599153486514703	0	0	0	-10.05109549831352	0	86.45508545939919	3.599153486514703	0	0
1.3	2.915304366592217	6.355533957531353	-58.28679213339445	0	0.9399999998679526	0	44.70885709116812	-11.06292305519042	0	59.30432135019475	1.035055668221667	-5.444398376257297	0	0	44.70885709116812	-11.06292305519042	0	59.30432135019475	1.035055668221667	-5.444398376257297	0	0	1.342234057267724	3.099691746363198	-28.59890496126376	0.551497955839703	-50.28200762958765	-10.80756612327472	146.7560272487102	3.587243649485083	0	0	0	-10.06398064100814	0	86.46681495328677	3.587243649485083	0	0
1.31	2.946394904860072	6.534497644976382	-57.8598953547008	0	0.9399999998679526	0	44.71032752137021	-11.049033360641	0	59.3077183613884	1.035114957251724	-5.437291248208076	0	0	44.71032752137021	-11.049033360641	0	59.3077183613884	1.035114957251724	-5.437291248208076	0	0	1.567819645489229	2.596368797447353	-28.78504292654211	3.364911398766091	-49.88344260269937	-8.286069614068458	150.2997028878007	3.573546718683336	0	0	0	-10.07880264354452	0	86.48030448151445	3.573546718683336	0	0
1.32	2.987477751299521	6.713199358045029	-57.26046933987079	0	0.9399999998679526	0	44.71153598243925	-11.03764057484677	0	59.31048256765641	1.035163201752305	-5.431479183836252	0	0	44.71153598243925	-11.03764057484677	0	59.31048256765641	1.035163201752305	-5.431479183836252	0	0	1.786469002416684	2.12203474671203	-29.16253262790388	6.204290678144735	-49.05115935692889	-6.00024858352992	151.8306935872233	3.562305277410671	0	0	0	-10.09095052452921	0	86.49137569740844	3.562305277410671	0	0
1.33	3.075608944624544	6.812100697170377	-57.44658997734484	0	0.9399999998679526	0	44.71268787351441	-11.02698935118636	0	59.31313653877717	1.035209522286615	-5.426075455492855	0	0	44.71268787351441	-11.02698935118636	0	59.31313653877717	1.035209522286615	-5.426075455492855	0	0	1.88568264197076	1.699528882834754	-28.7106245440765	8.963007534070957	-48.10159241803941	-3.886098386057264	152.6136421417986	3.551548177770586	0	0	0	-10.10260825055867	0	86.50196991557573	3.551548177770586	0	0
1.34	3.194243001895638	7.023921313157716	-57.89944147469618	0	0.9399999998679526	0	44.71376137918256	-11.01699677006441	0	59.31559506576645	1.035252431677327	-5.420999913533252	0	0	44.71376137918256	-11.01699677006441	0	59.31559506576645	1.035252431677327	-5.420999913533252	0	0	2.053958153547508	1.176074490245825	-27.90633104716756	11.74924035783633	-47.1766574368839	-1.790235017614834	153.6598904256811	3.541540939010357	0	0	0	-10.11343819630584	0	86.51182562309005	3.541540939010357	0	0
1.35	3.255548149082114	7.157300211018941	-57.87057286840323	0	0.9399999998679526	0	44.71509075288293	-11.0048061011619	0	59.31867465983218	1.035306180733399	-5.414826156821118	0	0	44.71509075288293	-11.0048061011619	0	59.31867465983218	1.035306180733399	-5.414826156821118	0	0	2.205265447112082	0.7174772608669259	-27.57096279585867	14.87628555618896	-46.29275490214516	0.8925662946707408	155.9661115241609	3.529098000180318	0	0	0	-10.12694760780197	0	86.52408016140498	3.529098000180318	0	0
1.36	3.272571351007565	7.259775511019411	-57.40837766729658	0	0.9399999998679526	0	44.71642263286743	-10.99264250662308	0	59.32175554392094	1.03535995230462	-5.408677518071309	0	0	44.71642263286743	-10.99264250662308	0	59.32175554392094	1.03535995230462	-5.408677518071309	0	0	2.352710366869846	0.3418742298747438	-27.84547983378703	17.93491488114204	-45.23182429877699	3.78948174042154	158.4306724064504	3.516626389787372	0	0	0	-10.14049115471527	0	86.53636293833691	3.516626389787372	0	0
1.37	3.289251138888216	7.368398614908223	-56.95342265930409	0	0.9399999998679526	0	44.71763652319878	-10.98186010738322	0	59.3245698322282	1.035409070901682	-5.40328097265474	0	0	44.71763652319878	-10.98186010738322	0	59.3245698322282	1.035409070901682	-5.40328097265474	0	0	2.486086960954698	-0.02853981690069349	-27.89213946382884	20.69829102262756	-43.71261653098971	6.014078112730322	158.5029784123106	3.505213260956901	0	0	0	-10.15291776369922	0	86.547603269463	3.505213260956901	0	0
1.38	3.307392462485434	7.428527754970566	-56.88403774136463	0	0.9399999998679526	0	44.71907558015185	-10.9693221659053	0	59.32792556598766	1.035467639504605	-5.397042719387458	0	0	44.71907558015185	-10.9693221659053	0	59.32792556598766	1.035467639504605	-5.397042719387458	0	0	2.576432082342034	-0.3546041103796939	-27.54785509998102	23.23785883135857	-42.38773498130461	7.565033404169921	157.7532864759081	3.491634043347475	0	0	0	-10.16774105817794	0	86.56097690495692	3.491634043347475	0	0
1.39	3.300639475192077	7.445795199218814	-56.70148730422491	0	0.9399999998679526	0	44.7205160532866	-10.95690518903631	0	59.33128945141219	1.035526350380923	-5.390886572996199	0	0	44.7205160532866	-10.95690518903631	0	59.33128945141219	1.035526350380923	-5.390886572996199	0	0	2.652457753994181	-0.6790285794136498	-27.31809889230073	25.79585836959477	-40.98830651866844	9.072134356641042	156.9100679091191	3.478016751649904	0	0	0	-10.18262454256373	0	86.57438804341373	3.478016751649904	0	0
1.4	3.317135405308355	7.41261551978407	-57.10513598427378	0	0.9399999998679526	0	44.72144403160338	-10.94863966252207	0	59.33341910864647	1.0355635199116	-5.386752993530928	0	0	44.72144403160338	-10.94863966252207	0	59.33341910864647	1.0355635199116	-5.386752993530928	0	0	2.665584887087409	-0.858284409271042	-26.66781462076635	28.19158679114226	-40.0199089069971	10.76852367243211	157.9166362165308	3.469305178346652	0	0	0	-10.19209704571881	0	86.58296771852385	3.469305178346652	0	0
1.41	3.406564830056467	7.488483764559512	-57.63597994685779	0	0.9399999998679526	0	44.7226313918673	-10.93839123406248	0	59.33617751502511	1.035611663185015	-5.38167396886927	0	0	44.7226313918673	-10.93839123406248	0	59.33617751502511	1.035611663185015	-5.38167396886927	0	0	2.74414128537099	-1.168235635318215	-25.9437916170397	30.39157955297009	-38.27943494094998	12.65583283729975	157.6348933260871	3.45808861503611	0	0	0	-10.20434904067641	0	86.59401447174956	3.45808861503611	0	0
1.42	3.408544461894828	7.43271057188939	-58.0260704610475	0	0.9399999998679526	0	44.72424264330638	-10.92493952656453	0	59.33996555339667	1.035677776926791	-5.37507309713036	0	0	44.72424264330638	-10.92493952656453	0	59.33996555339667	1.035677776926791	-5.37507309713036	0	0	2.762628515152559	-1.377039300970092	-25.26130263573207	32.32268533714686	-36.56382253983885	14.22523885471899	156.3357253415325	3.442769839159778	0	0	0	-10.22115932382207	0	86.60910135397151	3.442769839159778	0	0
1.43	3.454001788873872	7.470086826469961	-58.52803527670621	0	0.9399999998679526	0	44.72669201174524	-10.90512203235675	0	59.34578019200481	1.035779261515317	-5.365442086116306	0	0	44.72669201174524	-10.90512203235675	0	59.34578019200481	1.035779261515317	-5.365442086116306	0	0	2.81563602643517	-1.575852258632078	-24.50862746551269	34.56001622148933	-34.88827571428919	15.55227301052906	154.2157144710502	3.419347095359369	0	0	0	-10.2469689729916	0	86.63216955548812	3.419347095359369	0	0
1.44	3.496381304177774	7.449653739662312	-58.94553819168223	0	0.9399999998679526	0	44.72686644556833	-10.90309750131385	0	59.34610723262222	1.035784969450878	-5.364375871309399	0	0	44.72686644556833	-10.90309750131385	0	59.34610723262222	1.035784969450878	-5.364375871309399	0	0	2.857676396623127	-1.770845252346876	-24.09546241066134	36.99325514053418	-33.3282875094539	16.7850723703264	152.3207814940419	3.417827946766263	0	0	0	-10.24852250990251	0	86.63366567819885	3.417827946766263	0	0
